<svg width="60" height="61" viewBox="0 0 60 61" fill="none" xmlns="http://www.w3.org/2000/svg">
<rect y="0.109863" width="60" height="60" rx="30" fill="#FF822E"/>
<path d="M30.0842 36.4899C30.5176 36.4899 30.9142 36.4199 31.2742 36.2799C31.6342 36.1332 31.9409 35.9332 32.1942 35.6799C32.4542 35.4265 32.6542 35.1265 32.7942 34.7799C32.9342 34.4332 33.0042 34.0565 33.0042 33.6499C33.0042 33.2099 32.9342 32.8165 32.7942 32.4699C32.6609 32.1165 32.4676 31.8199 32.2142 31.5799C31.9676 31.3399 31.6676 31.1565 31.3142 31.0299C30.9676 30.8965 30.5842 30.8299 30.1642 30.8299C29.7309 30.8299 29.3376 30.9032 28.9842 31.0499C28.6376 31.1965 28.3409 31.3965 28.0942 31.6499C27.8476 31.9032 27.6576 32.1999 27.5242 32.5399C27.3909 32.8799 27.3242 33.2399 27.3242 33.6199C27.3242 34.0465 27.3842 34.4365 27.5042 34.7899C27.6242 35.1432 27.8009 35.4465 28.0342 35.6999C28.2676 35.9465 28.5542 36.1399 28.8942 36.2799C29.2409 36.4199 29.6376 36.4899 30.0842 36.4899ZM29.2942 29.0099C29.1876 29.1432 29.0842 29.2699 28.9842 29.3899C28.8909 29.5099 28.7976 29.6299 28.7042 29.7499C29.0109 29.5765 29.3476 29.4399 29.7142 29.3399C30.0809 29.2399 30.4742 29.1899 30.8942 29.1899C31.4542 29.1899 31.9909 29.2832 32.5042 29.4699C33.0176 29.6499 33.4676 29.9232 33.8542 30.2899C34.2476 30.6499 34.5609 31.0999 34.7942 31.6399C35.0276 32.1732 35.1442 32.7899 35.1442 33.4899C35.1442 34.1565 35.0209 34.7799 34.7742 35.3599C34.5342 35.9399 34.1942 36.4465 33.7542 36.8799C33.3142 37.3065 32.7842 37.6465 32.1642 37.8999C31.5509 38.1465 30.8709 38.2699 30.1242 38.2699C29.3776 38.2699 28.7042 38.1499 28.1042 37.9099C27.5042 37.6699 26.9909 37.3332 26.5642 36.8999C26.1442 36.4599 25.8209 35.9332 25.5942 35.3199C25.3676 34.7065 25.2542 34.0232 25.2542 33.2699C25.2542 32.6165 25.3942 31.9332 25.6742 31.2199C25.9542 30.5065 26.3876 29.7565 26.9742 28.9699L30.5142 24.2199C30.6209 24.0799 30.7742 23.9599 30.9742 23.8599C31.1809 23.7599 31.4109 23.7099 31.6642 23.7099H33.5642L29.2942 29.0099Z" fill="white"/>
</svg>
