<svg width="60" height="61" viewBox="0 0 60 61" fill="none" xmlns="http://www.w3.org/2000/svg">
<rect y="0.419922" width="60" height="60" rx="30" fill="#FF822E"/>
<path d="M25.4842 27.9799C25.5842 27.2999 25.7709 26.7033 26.0442 26.1899C26.3242 25.6766 26.6742 25.2499 27.0942 24.9099C27.5142 24.5633 27.9942 24.3033 28.5342 24.1299C29.0809 23.9499 29.6709 23.8599 30.3042 23.8599C30.9442 23.8599 31.5242 23.9533 32.0442 24.1399C32.5709 24.3199 33.0209 24.5733 33.3942 24.8999C33.7742 25.2266 34.0642 25.6166 34.2642 26.0699C34.4709 26.5233 34.5742 27.0199 34.5742 27.5599C34.5742 28.0199 34.5176 28.4266 34.4042 28.7799C34.2976 29.1266 34.1409 29.4333 33.9342 29.6999C33.7342 29.9666 33.4876 30.1899 33.1942 30.3699C32.9009 30.5499 32.5709 30.6999 32.2042 30.8199C33.0976 31.0799 33.7676 31.4966 34.2142 32.0699C34.6609 32.6366 34.8842 33.3499 34.8842 34.2099C34.8842 34.9033 34.7542 35.5199 34.4942 36.0599C34.2342 36.5999 33.8809 37.0566 33.4342 37.4299C32.9942 37.8033 32.4776 38.0899 31.8842 38.2899C31.2976 38.4833 30.6742 38.5799 30.0142 38.5799C29.2742 38.5799 28.6342 38.4933 28.0942 38.3199C27.5542 38.1399 27.0876 37.8866 26.6942 37.5599C26.3076 37.2266 25.9842 36.8266 25.7242 36.3599C25.4642 35.8933 25.2442 35.3699 25.0642 34.7899L25.9942 34.3999C26.2409 34.2933 26.4742 34.2633 26.6942 34.3099C26.9209 34.3566 27.0842 34.4799 27.1842 34.6799C27.2909 34.8933 27.4109 35.1233 27.5442 35.3699C27.6776 35.6099 27.8476 35.8333 28.0542 36.0399C28.2676 36.2399 28.5276 36.4099 28.8342 36.5499C29.1476 36.6833 29.5309 36.7499 29.9842 36.7499C30.4442 36.7499 30.8442 36.6766 31.1842 36.5299C31.5309 36.3766 31.8176 36.1833 32.0442 35.9499C32.2776 35.7099 32.4509 35.4433 32.5642 35.1499C32.6776 34.8566 32.7342 34.5666 32.7342 34.2799C32.7342 33.9199 32.6909 33.5899 32.6042 33.2899C32.5176 32.9833 32.3476 32.7233 32.0942 32.5099C31.8476 32.2966 31.4942 32.1299 31.0342 32.0099C30.5809 31.8833 29.9842 31.8199 29.2442 31.8199V30.2699C29.8509 30.2633 30.3609 30.2033 30.7742 30.0899C31.1942 29.9699 31.5276 29.8099 31.7742 29.6099C32.0276 29.4033 32.2076 29.1566 32.3142 28.8699C32.4276 28.5833 32.4842 28.2699 32.4842 27.9299C32.4842 27.5633 32.4276 27.2399 32.3142 26.9599C32.2009 26.6799 32.0409 26.4466 31.8342 26.2599C31.6342 26.0666 31.3942 25.9233 31.1142 25.8299C30.8342 25.7366 30.5242 25.6899 30.1842 25.6899C29.8576 25.6899 29.5542 25.7366 29.2742 25.8299C29.0009 25.9233 28.7542 26.0533 28.5342 26.2199C28.3209 26.3866 28.1409 26.5866 27.9942 26.8199C27.8476 27.0466 27.7409 27.2966 27.6742 27.5699C27.5809 27.8433 27.4542 28.0266 27.2942 28.1199C27.1409 28.2133 26.9142 28.2333 26.6142 28.1799L25.4842 27.9799Z" fill="white"/>
</svg>
