<svg width="60" height="61" viewBox="0 0 60 61" fill="none" xmlns="http://www.w3.org/2000/svg">
<rect y="0.419922" width="60" height="60" rx="30" fill="#FF822E"/>
<path d="M34.1392 36.3899C34.3726 36.3899 34.5559 36.4599 34.6892 36.5999C34.8226 36.7333 34.8892 36.9066 34.8892 37.1199V38.4199H25.1492V37.6899C25.1492 37.5433 25.1792 37.3899 25.2392 37.2299C25.2992 37.0699 25.3959 36.9233 25.5292 36.7899L30.0092 32.2999C30.3892 31.9199 30.7259 31.5566 31.0192 31.2099C31.3192 30.8633 31.5726 30.5166 31.7792 30.1699C31.9926 29.8233 32.1526 29.4733 32.2592 29.1199C32.3726 28.7599 32.4292 28.3833 32.4292 27.9899C32.4292 27.6099 32.3692 27.2766 32.2492 26.9899C32.1359 26.6966 31.9759 26.4566 31.7692 26.2699C31.5692 26.0766 31.3259 25.9333 31.0392 25.8399C30.7592 25.7399 30.4492 25.6899 30.1092 25.6899C29.7826 25.6899 29.4792 25.7366 29.1992 25.8299C28.9259 25.9233 28.6792 26.0533 28.4592 26.2199C28.2459 26.3866 28.0659 26.5866 27.9192 26.8199C27.7792 27.0466 27.6759 27.2966 27.6092 27.5699C27.5092 27.8433 27.3792 28.0266 27.2192 28.1199C27.0659 28.2133 26.8392 28.2333 26.5392 28.1799L25.4092 27.9799C25.5092 27.2999 25.6959 26.7033 25.9692 26.1899C26.2492 25.6766 26.5992 25.2499 27.0192 24.9099C27.4392 24.5633 27.9192 24.3033 28.4592 24.1299C29.0059 23.9499 29.5959 23.8599 30.2292 23.8599C30.8692 23.8599 31.4559 23.9566 31.9892 24.1499C32.5292 24.3366 32.9926 24.6066 33.3792 24.9599C33.7726 25.3066 34.0792 25.7299 34.2992 26.2299C34.5192 26.7299 34.6292 27.2933 34.6292 27.9199C34.6292 28.4533 34.5492 28.9466 34.3892 29.3999C34.2359 29.8533 34.0259 30.2866 33.7592 30.6999C33.4926 31.1133 33.1792 31.5166 32.8192 31.9099C32.4659 32.2966 32.0926 32.6899 31.6992 33.0899L28.2192 36.6499C28.5059 36.5699 28.7926 36.5066 29.0792 36.4599C29.3726 36.4133 29.6492 36.3899 29.9092 36.3899H34.1392Z" fill="white"/>
</svg>
