<svg width="60" height="61" viewBox="0 0 60 61" fill="none" xmlns="http://www.w3.org/2000/svg">
<rect y="0.109863" width="60" height="60" rx="30" fill="#FF822E"/>
<path d="M28.1542 29.0299C28.5009 28.9565 28.8309 28.9032 29.1442 28.8699C29.4642 28.8365 29.7709 28.8199 30.0642 28.8199C30.8176 28.8199 31.4809 28.9332 32.0542 29.1599C32.6342 29.3799 33.1176 29.6865 33.5042 30.0799C33.8976 30.4732 34.1909 30.9365 34.3842 31.4699C34.5842 31.9965 34.6842 32.5699 34.6842 33.1899C34.6842 33.9565 34.5509 34.6532 34.2842 35.2799C34.0176 35.9065 33.6476 36.4432 33.1742 36.8899C32.7009 37.3299 32.1409 37.6699 31.4942 37.9099C30.8542 38.1499 30.1609 38.2699 29.4142 38.2699C28.9742 38.2699 28.5542 38.2265 28.1542 38.1399C27.7609 38.0532 27.3909 37.9365 27.0442 37.7899C26.6976 37.6365 26.3776 37.4632 26.0842 37.2699C25.7909 37.0699 25.5276 36.8632 25.2942 36.6499L25.9542 35.7299C26.0942 35.5299 26.2809 35.4299 26.5142 35.4299C26.6609 35.4299 26.8209 35.4832 26.9942 35.5899C27.1676 35.6965 27.3676 35.8132 27.5942 35.9399C27.8276 36.0599 28.1009 36.1732 28.4142 36.2799C28.7276 36.3865 29.1009 36.4399 29.5342 36.4399C30.0076 36.4399 30.4309 36.3632 30.8042 36.2099C31.1776 36.0565 31.4909 35.8432 31.7442 35.5699C32.0042 35.2899 32.2009 34.9565 32.3342 34.5699C32.4676 34.1832 32.5342 33.7599 32.5342 33.2999C32.5342 32.8799 32.4709 32.5032 32.3442 32.1699C32.2242 31.8365 32.0409 31.5532 31.7942 31.3199C31.5542 31.0865 31.2509 30.9099 30.8842 30.7899C30.5176 30.6632 30.0942 30.5999 29.6142 30.5999C29.2609 30.5999 28.8976 30.6299 28.5242 30.6899C28.1576 30.7499 27.7842 30.8432 27.4042 30.9699L26.0642 30.5899L27.2442 23.7099H34.2142V24.6399C34.2142 24.9465 34.1176 25.1965 33.9242 25.3899C33.7309 25.5832 33.4076 25.6799 32.9542 25.6799H28.7342L28.1542 29.0299Z" fill="white"/>
</svg>
