<svg width="30" height="31" viewBox="0 0 30 31" fill="none" xmlns="http://www.w3.org/2000/svg">
<path fill-rule="evenodd" clip-rule="evenodd" d="M15 30.1699C23.2843 30.1699 30 23.4542 30 15.1699C30 6.88566 23.2843 0.169922 15 0.169922C6.71574 0.169922 0 6.88566 0 15.1699C0 23.4542 6.71574 30.1699 15 30.1699ZM7.5 11.9875C7.5 9.60666 9.43698 7.66992 11.8175 7.66992H18.1825C20.5633 7.66992 22.5 9.6069 22.5 11.9875V18.4108C22.5 20.7913 20.5633 22.7283 18.1825 22.7283H11.8175C9.43674 22.7283 7.5 20.7913 7.5 18.4108V11.9875ZM11.0965 15.1715C11.0965 13.0353 12.8531 11.2976 15.0119 11.2976C17.1707 11.2976 18.9273 13.0353 18.9273 15.1715C18.9273 17.3075 17.1707 19.0452 15.0119 19.0452C12.8529 19.0452 11.0965 17.3075 11.0965 15.1715ZM12.5227 15.1715C12.5227 16.5209 13.6392 17.6191 15.0119 17.6191C16.3846 17.6191 17.5012 16.5212 17.5012 15.1715C17.5012 13.8219 16.3843 12.724 15.0119 12.724C13.6392 12.724 12.5227 13.8219 12.5227 15.1715ZM18.9974 12.0606C19.5062 12.0606 19.9187 11.6481 19.9187 11.1393C19.9187 10.6305 19.5062 10.2181 18.9974 10.2181C18.4886 10.2181 18.0762 10.6305 18.0762 11.1393C18.0762 11.6481 18.4886 12.0606 18.9974 12.0606Z" fill="black"/>
</svg>
