<svg width="30" height="31" viewBox="0 0 30 31" fill="none" xmlns="http://www.w3.org/2000/svg">
<path fill-rule="evenodd" clip-rule="evenodd" d="M15 30.1699C23.2843 30.1699 30 23.4542 30 15.1699C30 6.88566 23.2843 0.169922 15 0.169922C6.71574 0.169922 0 6.88566 0 15.1699C0 23.4542 6.71574 30.1699 15 30.1699ZM15.5483 14.9322L22.2573 10.277C22.0304 9.96939 21.6655 9.76992 21.254 9.76992H8.74602C8.35008 9.76992 7.99728 9.9546 7.76904 10.2425L14.2764 14.9215C14.6554 15.194 15.1648 15.1983 15.5483 14.9322ZM22.5 19.2712V11.4585L16.04 15.9409C15.3565 16.4152 14.4483 16.4076 13.7729 15.9219L7.5 11.4115V19.2712C7.5 19.9594 8.05785 20.5172 8.74602 20.5172H21.254C21.9422 20.5172 22.5 19.9594 22.5 19.2712Z" fill="black"/>
</svg>
