<svg width="30" height="31" viewBox="0 0 30 31" fill="none" xmlns="http://www.w3.org/2000/svg">
<path fill-rule="evenodd" clip-rule="evenodd" d="M15 30.1699C23.2843 30.1699 30 23.4542 30 15.1699C30 6.88566 23.2843 0.169922 15 0.169922C6.71574 0.169922 0 6.88566 0 15.1699C0 23.4542 6.71574 30.1699 15 30.1699ZM15.0027 8.86992H15.4854C16.9475 8.87175 18.349 9.45375 19.3822 10.4881C20.4154 11.5224 20.9957 12.9245 20.9957 14.3863V14.869C20.9801 15.0409 20.9007 15.2007 20.773 15.3169C20.6453 15.4331 20.4787 15.4972 20.306 15.4964H20.2509C20.069 15.4807 19.9008 15.3934 19.7831 15.2538C19.6655 15.1142 19.608 14.9336 19.6233 14.7518V14.3863C19.6233 13.289 19.1873 12.2367 18.4113 11.4608C17.6353 10.6849 16.5828 10.249 15.4854 10.249H15.1199C14.937 10.2646 14.7554 10.2068 14.6151 10.0885C14.4748 9.97017 14.3872 9.80097 14.3716 9.61809C14.3561 9.43521 14.4138 9.25362 14.5322 9.11334C14.6505 8.97303 14.8198 8.88546 15.0027 8.86992ZM17.0667 14.8739C16.9374 14.7446 16.8647 14.5692 16.8647 14.3863C16.8647 14.0205 16.7194 13.6697 16.4607 13.4111C16.202 13.1525 15.8512 13.0072 15.4854 13.0072C15.3025 13.0072 15.1271 12.9346 14.9978 12.8052C14.8684 12.6759 14.7958 12.5005 14.7958 12.3176C14.7958 12.1348 14.8684 11.9594 14.9978 11.8301C15.1271 11.7008 15.3025 11.6281 15.4854 11.6281C16.217 11.6281 16.9187 11.9187 17.436 12.436C17.9534 12.9532 18.244 13.6548 18.244 14.3863C18.244 14.5692 18.1713 14.7446 18.042 14.8739C17.9127 15.0032 17.7373 15.0758 17.5543 15.0758C17.3714 15.0758 17.196 15.0032 17.0667 14.8739ZM19.9203 20.8898L19.9203 20.8953C19.92 21.0417 19.889 21.1863 19.8294 21.32C19.7699 21.4535 19.6833 21.573 19.575 21.6709C19.4602 21.7754 19.3237 21.8531 19.1753 21.8983C19.0355 21.941 18.8884 21.9539 18.7435 21.9363C17.4743 21.9289 16.0231 21.3302 14.7541 20.6228C13.4661 19.9047 12.3133 19.0444 11.6406 18.467L11.6304 18.4583L11.621 18.4489C9.69909 16.5259 8.46525 14.022 8.11086 11.3257C8.08869 11.1729 8.10054 11.017 8.14557 10.8693C8.19081 10.7208 8.26845 10.5842 8.37282 10.4693C8.47191 10.3597 8.59308 10.2722 8.72832 10.2126C8.86341 10.1532 9.00948 10.1229 9.15702 10.1238H11.249C11.4897 10.119 11.7248 10.1972 11.9147 10.3454C12.1058 10.4946 12.2394 10.7054 12.2926 10.9421L12.3011 10.98V11.0189C12.3011 11.117 12.3236 11.2084 12.3554 11.338C12.3683 11.3903 12.3827 11.4489 12.3977 11.5166L12.3978 11.5171C12.4749 11.8668 12.5775 12.2105 12.7047 12.5452L12.8197 12.8476L11.547 13.4479L11.5454 13.4487C11.4612 13.4873 11.3958 13.5578 11.3635 13.6446L11.3615 13.6501L11.3593 13.6555C11.3243 13.7407 11.3243 13.8363 11.3593 13.9215L11.3743 13.9582L11.3808 13.9973C11.4241 14.2594 11.5681 14.5994 11.8219 14.995C12.0729 15.3864 12.4189 15.813 12.8424 16.2461C13.6862 17.1089 14.8194 17.9787 16.0739 18.6315C16.156 18.6618 16.2466 18.6602 16.3277 18.6269L16.3331 18.6246L16.3386 18.6226C16.425 18.5904 16.4953 18.5254 16.534 18.4416L16.5344 18.4406L17.107 17.1677L17.4119 17.2789C17.758 17.4052 18.1121 17.5083 18.4719 17.5877L18.4736 17.5881L18.4752 17.5885C18.6456 17.6278 18.8318 17.6612 19.0141 17.6882L19.0269 17.6901L19.0396 17.693C19.2761 17.7462 19.4868 17.8799 19.6359 18.0711C19.7829 18.2597 19.861 18.4927 19.8575 18.7316L19.9203 20.8898Z" fill="black"/>
</svg>
