<svg width="30" height="31" viewBox="0 0 30 31" fill="none" xmlns="http://www.w3.org/2000/svg">
<path fill-rule="evenodd" clip-rule="evenodd" d="M15 30.1699C23.2842 30.1699 30 23.4541 30 15.1699C30 6.88572 23.2842 0.169922 15 0.169922C6.7158 0.169922 0 6.88572 0 15.1699C0 23.4541 6.7158 30.1699 15 30.1699ZM21.5931 9.75312C21.7089 8.43912 20.3211 8.98032 20.3211 8.98032C19.2966 9.40452 18.24 9.83532 17.172 10.2709C13.86 11.6218 10.4388 13.0174 7.5243 14.3911C5.9439 14.9707 6.8691 15.5503 6.8691 15.5503L9.3744 16.3234C10.5309 16.6714 11.1474 16.2847 11.1474 16.2847L16.5438 12.6133C18.471 11.2993 18.0084 12.3814 17.5458 12.8452L13.4988 16.7098C12.882 17.251 13.1904 17.7148 13.4601 17.9467C14.2251 18.6214 16.1061 19.8559 16.9272 20.3947C17.1408 20.5348 17.2827 20.6281 17.3148 20.6521C17.5074 20.8066 18.5481 21.5023 19.242 21.3478C19.9359 21.193 20.013 20.3041 20.013 20.3041L20.9379 14.2363C21.0765 13.183 21.2358 12.1705 21.363 11.3617C21.483 10.5979 21.5745 10.0162 21.5931 9.75312Z" fill="black"/>
</svg>
